<?xml version="1.0" standalone="no"?>
<!DOCTYPE svg PUBLIC "-//W3C//DTD SVG 20010904//EN"
 "http://www.w3.org/TR/2001/REC-SVG-20010904/DTD/svg10.dtd">
<svg version="1.0" xmlns="http://www.w3.org/2000/svg"
 width="612.000000pt" height="612.000000pt" viewBox="0 0 612.000000 612.000000"
 preserveAspectRatio="xMidYMid meet">
<metadata>
Created by potrace 1.14, written by Peter Selinger 2001-2017
</metadata>
<g transform="translate(0.000000,612.000000) scale(0.100000,-0.100000)"
fill="#000000" stroke="none">
<path d="M2580 4254 c-709 -220 -1218 -378 -1500 -464 -412 -126 -459 -141
-469 -154 -5 -6 -11 -29 -12 -50 l-4 -39 205 -64 c113 -34 222 -68 243 -73
l37 -11 0 -234 0 -235 -45 -21 c-74 -35 -125 -116 -125 -198 0 -57 42 -136 89
-167 23 -15 41 -33 41 -40 0 -8 -19 -31 -41 -51 -57 -52 -84 -98 -119 -201
-36 -109 -52 -227 -48 -362 l3 -105 80 -24 c68 -21 101 -25 215 -24 116 0 145
3 210 24 l75 25 -2 160 c-1 180 -18 267 -77 389 -30 63 -97 145 -118 145 -21
0 -5 41 21 55 36 18 74 67 90 114 33 101 -16 214 -113 259 l-44 21 -7 73 c-4
40 -5 140 -3 223 l3 150 270 83 c149 46 351 109 450 139 278 85 714 220 880
272 123 39 156 53 183 80 22 23 39 32 52 28 11 -3 18 -1 14 4 -3 5 20 9 51 9
65 0 119 -22 142 -56 14 -22 14 -26 -2 -50 -33 -50 -145 -71 -219 -40 -38 16
-49 13 -471 -118 -99 -31 -409 -127 -690 -214 -338 -105 -510 -163 -510 -171
0 -9 73 -36 205 -76 113 -35 286 -89 385 -120 884 -277 1114 -345 1166 -345
36 0 151 31 407 111 312 97 461 143 792 244 41 13 176 55 300 93 124 38 374
116 555 172 182 55 345 106 363 111 30 10 32 13 32 60 0 60 7 56 -245 133 -99
30 -335 102 -525 161 -190 58 -394 121 -455 140 -60 19 -312 97 -560 174 -582
180 -620 191 -675 190 -28 0 -206 -50 -480 -135z"/>
<path d="M1645 3028 c-75 -161 -128 -356 -142 -520 -7 -77 -13 -72 112 -83
467 -41 948 -230 1352 -531 47 -35 91 -64 98 -64 6 0 65 39 131 86 185 134
442 281 471 270 8 -3 12 -2 9 3 -6 10 67 43 204 94 183 68 400 117 605 137 66
7 126 14 133 16 16 4 15 58 -3 168 -26 160 -75 315 -142 449 -37 74 -46 78
-118 53 -22 -8 -92 -31 -155 -50 -63 -19 -334 -103 -602 -185 -330 -103 -501
-151 -533 -151 -25 0 -74 9 -108 19 -34 11 -305 95 -602 186 -297 92 -559 173
-583 181 -76 25 -79 23 -127 -78z"/>
</g>
</svg>
